<?xml version="1.0" encoding="UTF-8" standalone="no"?>
<!-- Generator: Adobe Illustrator 14.0.0, SVG Export Plug-In . SVG Version: 6.00 Build 43363)  -->

<svg
   xmlns:dc="http://purl.org/dc/elements/1.1/"
   xmlns:cc="http://creativecommons.org/ns#"
   xmlns:rdf="http://www.w3.org/1999/02/22-rdf-syntax-ns#"
   xmlns:svg="http://www.w3.org/2000/svg"
   xmlns="http://www.w3.org/2000/svg"
   xmlns:sodipodi="http://sodipodi.sourceforge.net/DTD/sodipodi-0.dtd"
   xmlns:inkscape="http://www.inkscape.org/namespaces/inkscape"
   version="1.1"
   id="icon-m-applet-settings-layer"
   x="0px"
   y="0px"
   width="48px"
   height="48px"
   viewBox="0 0 48 48"
   style="enable-background:new 0 0 48 48;"
   xml:space="preserve"
   inkscape:version="0.48.1 r9760"
   sodipodi:docname="icon-m-applet-settings.svg"><metadata
   id="metadata3453"><rdf:RDF><cc:Work
       rdf:about=""><dc:format>image/svg+xml</dc:format><dc:type
         rdf:resource="http://purl.org/dc/dcmitype/StillImage" /><dc:title></dc:title></cc:Work></rdf:RDF></metadata><defs
   id="defs3451" /><sodipodi:namedview
   pagecolor="#ffffff"
   bordercolor="#666666"
   borderopacity="1"
   objecttolerance="10"
   gridtolerance="10"
   guidetolerance="10"
   inkscape:pageopacity="0"
   inkscape:pageshadow="2"
   inkscape:window-width="1171"
   inkscape:window-height="749"
   id="namedview3449"
   showgrid="false"
   inkscape:zoom="5.0833333"
   inkscape:cx="24"
   inkscape:cy="24"
   inkscape:window-x="0"
   inkscape:window-y="26"
   inkscape:window-maximized="0"
   inkscape:current-layer="icon-m-applet-settings-layer" />
<g
   id="icon-m-applet-settings">
	<g
   id="g3439">
		<rect
   id="_x34_8_55_"
   style="fill:none;"
   width="48"
   height="48" />
		<rect
   id="_x33_2_55_"
   x="8"
   y="8"
   style="fill:none;"
   width="32"
   height="32" />
		<g
   id="g3443">
			<path
   d="M47.5,24c0,17.409-6.088,23.5-23.502,23.5C6.588,47.5,0.5,41.409,0.5,24S6.588,0.5,23.998,0.5     C41.412,0.5,47.5,6.591,47.5,24z"
   id="path3445" />
		</g>
	</g>
	<path
   style="fill:#FFFFFF;"
   d="M36.116,33.484l-2.648,2.657c-0.492,0.476-1.281,0.476-1.766,0L21.351,25.773   c-6.312,3.492-9.836-4.352-9.836-6.484c0-1.758,0.133-2.656,0.773-2.008l4.789,4.789c2.594-0.711,4.219-2.68,4.969-4.969   l-4.758-4.766c-1.195-1.194,2.867-1.148,5.547,0.407c5.945,3.437,3.461,7.937,2.953,8.624l10.328,10.336   C36.607,32.195,36.607,32.984,36.116,33.484z"
   id="path3447" />
</g>
<rect
   style="fill:#ffffff;fill-opacity:1"
   id="rect3466"
   width="29.704918"
   height="34.229507"
   x="9.8360653"
   y="7.0819669" /><path
   inkscape:connector-curvature="0"
   style="fill:#000000"
   d="M 24.001,0.7499998 C 11.16,0.7499998 0.75,11.168 0.75,24.014 0.75,36.841 11.16,47.25 24.001,47.25 36.832,47.25 47.25,36.841 47.25,24.014 47.25,11.168 36.832,0.7499998 24.001,0.7499998 z M 23.255,39.75 c -2.228,0 -4.003,-1.772 -4.003,-4 0,-2.227 1.775,-4.043 4.003,-4.043 2.229,0 4.049,1.816 4.049,4.043 0,2.228 -1.82,4 -4.049,4 z m 5.982,-16.725 c -1.993,1.868 -2.848,2.844 -2.848,4.511 v 1.668 h -6.973 v -1.952 c 0,-2.805 1.383,-4.473 3.499,-6.424 1.545,-1.422 2.846,-2.641 2.846,-4.551 0,-2.358 -1.546,-3.617 -4.11,-3.617 -1.38,0 -3.252,0.324 -5.084,0.813 V 9.5709998 c 1.912,-0.446 4.9,-0.813 7.055,-0.813 5.209,0 9.644,1.7460002 9.644,7.1930002 0.001,3.375 -2.076,5.204 -4.029,7.074 z"
   id="path3280" /></svg>